<?xml version="1.0" standalone="no"?><!DOCTYPE svg PUBLIC "-//W3C//DTD SVG 1.1//EN" "http://www.w3.org/Graphics/SVG/1.1/DTD/svg11.dtd"><svg class="icon" height="512" viewBox="0 0 1024 1024" version="1.1" xmlns="http://www.w3.org/2000/svg"><path d="M892.784035 159.134582c-10.173863-13.885084-31.929295 0-61.875006-40.375521-17.532318-23.739015-72.752722-20.987593-73.840493-31.09747-2.687436-24.890773 1.983583-87.597605-21.947391-87.597604-23.994961 0-51.253237 41.975185-61.875007 62.706831-10.685756 20.731646-27.962128 20.219754-51.18925 32.377201-49.077694 25.594625-79.791244 97.387549-69.169474 136.739285-13.309205 20.731646-63.85859 78.767459-146.33727 93.292408-82.478679 14.52495-143.71382 116.071625-178.266564 176.155008-34.61673 60.083382-10.685756 217.6183-2.687435 246.604213 4.031153 14.780896 0.575879 34.296798-2.495476 52.468981-116.135612 166.876956 112.488377 273.222623 370.034293 200.149969 108.841143-30.90551 48.885734-44.150728-49.589587-28.474021-106.473641 16.828466-328.76296-1.983583-277.637696-111.784525 50.997291 7.99832 130.340628 5.438858 151.712141 6.014737 47.222083 1.215745 202.325512 7.934334 231.95129-7.870347 27.578209-49.077694-45.686406-48.181882-78.19158-50.485398 21.883404-8.510213 40.759441-37.496126 40.631468-55.220404 28.601994 50.293438 56.244189 128.357045 151.072275 98.85924 26.61841-8.318253 10.685756-29.0499 10.685756-29.0499s21.243539-2.04757 21.243538-22.779216c0-18.684076-55.860269-8.318253-61.171154-24.890773-5.310885-16.57252-2.687436-163.741614-2.687435-184.409274 0-20.731646 5.630818-56.756081 59.827436-112.168445 65.842173-67.377851 12.733326-201.621659 17.980224-219.66587 5.630818-19.387929 47.861949-24.890773 69.80934-49.781546 13.821098-15.612721 22.011378-38.839844 14.013057-49.717559z" /></svg>